<?xml version="1.0" encoding="utf-8"?>
<!-- Generator: Adobe Illustrator 18.0.0, SVG Export Plug-In . SVG Version: 6.00 Build 0)  -->
<!DOCTYPE svg PUBLIC "-//W3C//DTD SVG 1.1//EN" "http://www.w3.org/Graphics/SVG/1.1/DTD/svg11.dtd">
<svg version="1.1" id="Layer_1" xmlns="http://www.w3.org/2000/svg" xmlns:xlink="http://www.w3.org/1999/xlink" x="0px" y="0px"
	 viewBox="0 0 486.7 65.3" enable-background="new 0 0 486.7 65.3" xml:space="preserve">
<g>
	<path fill="#1D1D1E" d="M122,11.6c-1.3,3.1-3.9,4.9-6.6,4.9c-1.4,0-2.7-0.3-3.7-0.6c-0.7-0.2-1.7-0.6-2.4-0.6
		c-1.1,0-2.4,0.6-2.6,2.1l-0.8-0.4c0-5.6,3.1-6.9,6-6.9c1.4,0,2.7,0.5,3.8,1c1,0.4,2.1,1,3.3,1c1.2,0,1.8-0.6,2.4-1.2L122,11.6
		L122,11.6z"/>
	<path fill="#1D1D1E" d="M127,11.3c-1.1,0.8-1.8,1.9-1.8,5V35c0,7.4-2.8,13.6-11,13.6c-1.6,0-3.8-0.6-5.4-1.3
		c-2.1-0.8-4.1-1.3-6.2-1.3c-2.4,0-3.4,0.8-4.1,1.9l-0.7-0.5c0.5-3.7,2.4-8.1,6.5-8.1c3,0,5.1,1.9,6.7,3.9c0.9,1.1,1.5,2,2.1,2.7
		c0.7,0.7,1.3,1.1,1.9,1.1c0.2,0,0.3,0,0.5,0V32.4h-1.6c-1.2,0-2.1,0.3-2.6,1.6l-0.6-0.3c0-0.4-0.1-0.8-0.1-1.1
		c0-4.5,2.8-5.9,4.4-5.9h0.5v-3.3c0-2.1,0.6-3.1,1.2-3.9l0.6-0.2c-0.4,0.8-0.7,1.8-0.7,3.3v23.8c0.7-0.7,1.4-2.3,1.4-5V21.7
		c0-4.9,3.8-8.5,8.3-11.1L127,11.3L127,11.3z"/>
	<path fill="#1D1D1E" d="M91.9,42.8c-1.5,1.5-3.3,3.3-4.6,4.6c-3.3-0.7-4.9-2.8-4.9-7.2V29.4c-1.1-1-2.3-1.9-3.2-2.6l-2.1,2.1v10.8
		c0,1.1,0.6,2.2,2,2.7v0.2l-4.8,4.8L68.5,43v-0.1c1-0.7,1.4-1.3,1.4-2.4V30c0-2.1-1-3.2-2.7-3.6v-0.3l4.8-4.8
		c3.2,1.1,4.5,3.1,4.8,6.1l6-6.1c1.8,1.3,5,3.5,6.6,4.8v13c0,1.9,0.7,3,2.4,3.5V42.8L91.9,42.8z"/>
	<path fill="#1D1D1E" d="M185.5,28.9c-3.9,2.9-6.6,4.9-9.7,7.3v2.7c1.7,1.1,3.1,2,4.7,2.9l2.6-2.6l0.8,0.8l-7.3,7.4
		c-2.3-1.5-5.6-3.7-7.9-5.4V28.5c3.9-2.2,8-4.7,11.9-7.3C182.5,24.1,183.9,26.2,185.5,28.9L185.5,28.9z M179.3,32.1
		c-1-2.1-2.1-4.3-3.4-6.5l-0.1,0.1v9C176.6,34.2,178.1,33,179.3,32.1L179.3,32.1z"/>
	<path fill="#1D1D1E" d="M166.9,21.7c-0.5,3.8-2.3,6.4-5.2,9.2c1.4,0.9,3.8,2.6,5,3.5v6c-3.6,2-6.1,3.7-9.9,7c-1-0.9-2.6-1.5-4-1.5
		c-1.8,0-3.8,0.9-4.7,1.9l-0.6-0.3c0.6-5.8,3.4-8.3,6.2-10.5c-1.1-0.8-3.6-2.6-4.6-3.5v-5.4c3.6-1.9,6.8-4.1,10-6.7
		c1,0.8,2.5,1.5,4,1.5c1.5,0,2.8-0.7,3.3-1.5L166.9,21.7L166.9,21.7z M163.5,27.8L163.5,27.8c-0.9,0.2-1.7,0.4-2.6,0.4
		c-1.8,0-3.3-0.6-4.6-1.8l-0.1,0v3.9c0.8,0.7,1.7,1.5,2.5,2C160.6,30.9,162.2,29.4,163.5,27.8L163.5,27.8z M159.5,42.1v-4.3
		c-0.8-0.7-1.9-1.5-2.7-2c-2.8,1.9-5.2,3.9-6.5,5.9l0,0c1.1-0.5,2.4-1,4.5-1C156.6,40.8,158.3,41.3,159.5,42.1L159.5,42.1
		L159.5,42.1z"/>
	<path fill="#1D1D1E" d="M147.2,39.7c-3.8,2.3-8,5-11.9,7.7c-3.1-2.2-7.6-5.6-7.6-5.6V28.2c4.5-2.1,8.8-4.2,12.8-6.8
		c1.6,1.1,4.9,3.3,6.6,4.6V39.7L147.2,39.7z M140.1,42.3v-13c-1.8-1.4-3.9-2.9-5.1-3.8l-0.2,0.1v13.2C136.4,40,138,41.1,140.1,42.3
		L140.1,42.3L140.1,42.3z"/>
	<path fill="#1D1D1E" d="M67.8,42.3c-1.8,1.9-3.3,3.5-4.8,5.1c-2.6-0.6-4.2-2.5-4.7-4.6l-5.9,4.7c-4-1.9-5.7-3.6-5.7-7.1
		c0-4.6,3.7-5.8,7.2-7.4v-0.1c-3.1-1-5.3-2.8-5.9-5.6c3.5-1.7,7.6-4,10.8-6c1.9,1.2,4.8,3.2,6.6,4.6v13.5c0,1.7,0.8,2.8,2.4,2.7
		V42.3L67.8,42.3z M58.2,31.1V29c-1.4-1.3-3.2-2.6-4.7-3.4l-0.3,0.1c-0.1,0.6-0.1,1.2-0.1,1.8c0,1.8,0.8,3.5,1.9,5L58.2,31.1
		L58.2,31.1z M58.2,41.2v-9c-2.5,1.1-5.1,2-5.1,5.4c0,2.9,1.7,4.1,3.3,4.9L58.2,41.2L58.2,41.2z"/>
	<path fill="#1D1D1E" d="M47.2,33c0,3-1,5.2-3.1,7.4c-1,1.1-2.3,2.2-3.8,3.4c-1.5,1.2-3.2,2.7-5.3,4.3c-1.7-1.4-4.8-2.8-8.6-2.8
		c-4.5,0-7.1,1-9.1,2.8l-0.7-0.7c1.9-4.9,6.4-8.4,12.7-8.4c5.2,0,8.1,1.4,10.8,3.6c1.7-1.7,2.4-3.4,2.4-6c0-2.8-1-4.4-6-6
		c-1.3-0.4-2.9-0.9-4.8-1.4l-0.4,0.7c1.8,0.5,3.4,1,4.9,1.5c3.8,1.3,5.6,2.7,5.6,5.2c0,1.3-0.3,2.5-0.5,3.1l-0.2,0
		c0-4.4-0.6-5.7-5.2-7.3c-1.5-0.5-3.2-0.9-5.1-1.5c-2.2,3.9-4.4,6.4-8,6.4c-2.5,0-3.3-1.3-3.3-2.5c0-1.2,0.8-2.1,2.1-2.1
		c2.1,0,2.2,2.4,3.5,2.4c1.9,0,3-1.6,4.6-4.4l-2.6-0.9c-3.7-1.2-5.2-3.6-5.3-6l0.1-0.6c0.8,2.3,1.9,4.5,6.4,5.9
		c0.8,0.2,1.3,0.4,1.9,0.6l0.4-0.8c-7-2-8.6-4.6-8.6-9.2c0-5.5,4.9-9.4,11.6-9.4c4.2,0,6.8,0.9,8.3,1.9l1.2-1.7l0.9,0.6
		c-2.8,3.8-5.3,7.4-7.9,11.1C44.5,24.2,47.2,27,47.2,33L47.2,33z M38.1,17.3c-1.2-2.3-3.6-4.7-7.3-4.7c-3,0-4.7,1.4-4.7,3.4
		c0,2.3,0.8,3.8,9,5.8C36.2,20.2,36.9,19,38.1,17.3L38.1,17.3z"/>
	<path fill="#1D1D1E" d="M358.7,49c0,4.2-5,7.5-11.4,7.5c-2,0-4.6-0.6-7-1.2c-1.8-0.5-4.4-1.2-6-1.2c-2.5,0-3.6,0.9-4.6,2.1
		l-0.5-0.5c0.6-3.3,1.8-7.7,7.2-7.7c3.1,0,5.7,1.6,7.9,3.3c1.8,1.4,3.9,3.3,5.9,3.3c2.1,0,3.3-1.3,3.3-3c0-3.2-5.3-4.3-5.3-8.7v-0.1
		c-1.7,1.7-2.8,3-4.5,4.7c-2.1-1.3-6.2-3.9-8-5.2V30c0-1.7-0.7-2.9-2.1-3.1v-0.2c1.2-1.3,3.5-3.6,5.3-5.4c2.5,0.9,4,3,4,6.5v11.3
		c1.2,0.8,3.3,1.9,4.9,2.8l0.3-0.3V29.5c0-1.7-0.4-2.7-2-3.2v-0.2c2.1-2,3.6-3.6,4.9-4.9c1.3,1,3.9,3,6,4.6V26
		c-1.4,0.7-1.8,1.7-1.8,3v11.4C355.1,44.2,358.7,44.7,358.7,49L358.7,49z"/>
	<path fill="#1D1D1E" d="M332.9,27.8c-1.2,1.3-3.6,3.6-5,4.8l-0.2,0c-0.7-1.6-2.2-4.3-3.3-5.8l-1,1v12.1c0.9,0.6,2.4,1.5,3.5,2
		l1.7-1.7l0.6,0.7c-4.5,4.6-6.5,6.6-6.5,6.6c-2.1-1.4-4.5-3-6.6-4.5V29.9c0-1.8-0.8-3-2.1-3.3v-0.2c1.6-1.6,3.5-3.4,5.1-5.2
		c2.2,0.6,3.8,2.7,4.1,5.4c2.3-2.3,3.5-3.6,5.3-5.4C329.9,22.7,331.9,25.8,332.9,27.8L332.9,27.8z"/>
	<path fill="#1D1D1E" d="M314,42.6c-2.7,2.8-4.7,4.8-4.7,4.8c-2.9-0.9-4.5-3.2-4.6-6l-5.8,6c-1.7-1.1-5.1-3.4-6.6-4.6V30.3
		c0-1.9-0.5-2.9-2.1-3.3v-0.2c0,0,2.8-2.8,5.3-5.5c2.4,0.6,3.9,2.8,3.9,6.4v12c1,0.9,2.7,1.8,3.5,2.2l1.7-1.8V29.6
		c0-1.6-0.3-2.8-1.8-3.3V26c1.5-1.5,3.7-3.5,4.9-4.7c1.7,1.4,4.4,3.4,5.8,4.4v0.2c-1.2,0.5-1.7,1.7-1.7,2.6v10.6
		c0,1.8,0.7,2.9,2.3,3.3V42.6L314,42.6z"/>
	<path fill="#1D1D1E" d="M289.6,27.7c-0.9,1.2-3,3.2-5,5h-0.2c-0.7-1.8-2.2-4.7-3.7-6.9l-0.4,0.3v13.2c1,0.8,2.9,1.9,4.3,2.6
		l2.4-2.4l0.8,0.8c-4.2,4.2-7.2,7.2-7.2,7.2c-2.5-1.6-4.7-3-7.4-5V28.8c3.9-1.8,8.7-4.9,12.1-7.6C286.9,23.2,288.5,25.6,289.6,27.7
		L289.6,27.7z"/>
	<path fill="#1D1D1E" d="M273.2,27.8c-1.2,1.3-3.6,3.6-5,4.8l-0.2,0c-0.7-1.6-2.2-4.3-3.2-5.8l-1,1v12.1c0.9,0.6,2.4,1.5,3.5,2
		l1.7-1.7l0.7,0.7c-4.5,4.6-6.5,6.6-6.5,6.6c-2.1-1.4-4.5-3-6.6-4.5V29.9c0-1.8-0.8-3-2.1-3.3v-0.2c1.6-1.6,3.5-3.4,5.1-5.2
		c2.2,0.6,3.8,2.7,4,5.4c2.3-2.3,3.5-3.6,5.3-5.4C270.1,22.7,272.1,25.8,273.2,27.8L273.2,27.8z"/>
	<path fill="#1D1D1E" d="M254.5,28.9c-3.9,2.9-6.6,4.9-9.7,7.3v2.7c1.7,1.1,3.1,2,4.7,2.9l2.6-2.6L253,40l-7.3,7.4
		c-2.3-1.5-5.6-3.7-7.9-5.4V28.5c3.9-2.2,8-4.7,11.9-7.3C251.6,24.1,252.9,26.2,254.5,28.9L254.5,28.9z M248.4,32.1
		c-1-2.1-2.1-4.3-3.4-6.5l-0.2,0.1v9C245.6,34.2,247.2,33,248.4,32.1L248.4,32.1z"/>
	<path fill="#1D1D1E" d="M236.8,42.8c-3,3.2-4.9,5.2-4.9,5.2c-3.2-1.1-5.3-3.2-5.3-7.7V18.9c-1-1-2.2-1.9-3.3-2.7l-0.4,0.4V26h1.8
		l-1.4,5.8h-0.4v10.6l1,0.6V43l-5.3,5l-6.5-5.2v-0.1c1.1-0.8,1.3-1.4,1.3-2.5v-8.5h-3.3l1.5-5.8h1.7v-4.2c0-2.9-1.1-4.7-3.7-6v26.4
		c0,3.3-1.3,6.5-5.4,6.5c-2.1,0-3.9-0.8-5.5-1.3c-1.5-0.4-2.9-0.8-4.5-0.8c-2.2,0-3.8,0.7-4.5,1.6l-0.7-0.5c0.4-4,2.5-7.4,7-7.4
		c0.9,0,1.9,0.2,2.7,0.6c1.2-0.7,1.4-2.1,1.4-4.9v-4h-1.4c-1.5,0-2.3,0.3-2.7,1.6l-0.8-0.3c0-0.4-0.1-0.9-0.1-1.2
		c0-4.3,2.7-5.9,4.3-5.9h0.7v-2.8c0-4.5,3.2-6.7,9.6-11.2c0,0,1.6-1.1,2.5-1.7c4.5,0.9,7.4,3.3,8.4,6.9l6.9-7c2,1.3,4.7,3.3,6.4,4.7
		v24.5c0,2.4,1,2.9,2.7,3.1V42.8L236.8,42.8z M222.1,26v-8.6l-1.2,1.2V26H222.1L222.1,26z M222.1,41.8V31.7h-1.2v7.9
		C220.9,40.7,221.4,41.3,222.1,41.8L222.1,41.8z M208.9,41.4V15.2l-0.4-0.2c-0.6,0.7-0.7,1.3-0.7,2.6v15.6c0,4.4-2.7,6.6-7.8,8v0.1
		c1.2,0.7,2,1.2,3.5,2.5c1.1,0.9,2.3,1.4,3.3,1.4C208.3,45.1,208.9,44.1,208.9,41.4L208.9,41.4z"/>
	<path fill="#1D1D1E" d="M448.1,25.4c-1.6,0.8-1.9,1.7-1.9,2.8v10.1c-4,3.2-7.2,5.7-11.3,9.1c-1.7-1.2-5-3.7-7.1-5.4
		c-0.6,0.7-4.2,4.2-5.3,5.4c-1.8-1.1-5.8-4-7.8-5.5V29c0-1.5-0.9-2.6-2-2.9v-0.2c1.7-1.8,3.5-3.3,4.6-4.6c2.1,0.2,4.5,2.9,4.5,5.9
		v11.3c1.1,0.9,3.1,2.3,4.7,3.3l0.3-0.3V29.1c0-1.6-0.3-2.2-1.6-2.6v-0.2l5-5l5.5,4v0.2c-1.3,0.4-1.7,1.4-1.7,2.5v10.5
		c1.3,1,3.5,2.5,5,3.5l0.1,0V29c0-1.3-0.3-2.1-1.6-2.6v-0.2l5-4.9l5.5,4V25.4L448.1,25.4z"/>
	<path fill="#1D1D1E" d="M400.4,10.7c-0.7,4.5-3.7,7-7,7.2v30.4h-1.1c-10.2-16.3-16.5-26.4-17.6-28.1h-0.1v20c2.6,0,4.9,1.1,6.6,2.4
		l1.3-1.3l0.8,0.8l-6.2,6.3c-1-1-4-2.1-5.7-2.1c-2.9,0-4.9,0.9-5.8,1.9l-0.5-0.5c0.8-4.7,4.2-7.2,8.5-7.4v-9h-1.8
		c-1,0-2,0.3-2.6,1.5l-0.6-0.3c0-0.4,0-0.7,0-1c0-4.5,2.5-6,4.4-6h0.7v-7.3c-0.9-1.4-1.9-2.6-3.3-2.6c-1.1,0-1.8,0.3-2.3,1l-0.6-0.5
		c1-3.9,3.3-5.9,6.3-5.9c3,0,4.9,1.9,7.1,5.3c5.5,8.5,11.5,18.4,11.5,18.4h0.1V17.9c-2,0-3.7-0.6-5.2-1.8l-1,1l-0.7-0.7
		c2.9-2.8,4.5-4.6,5.9-6.1c0.7,0.8,2.1,1.7,4.2,1.7c1.8,0,3.2-0.7,4-1.5L400.4,10.7L400.4,10.7z"/>
	<path fill="#1D1D1E" d="M466.5,21.7c-0.5,3.8-2.4,6.4-5.3,9.2c1.4,0.9,3.8,2.6,5,3.5v5.9c-3.6,2-6.1,3.7-9.9,7
		c-1-0.9-2.6-1.5-4-1.5c-1.8,0-3.8,0.9-4.7,1.9l-0.6-0.3c0.6-5.8,3.4-8.3,6.2-10.5c-1.1-0.8-3.6-2.6-4.6-3.5v-5.4
		c3.6-1.9,6.8-4.1,10-6.7c1,0.8,2.5,1.5,4,1.5c1.5,0,2.8-0.7,3.3-1.5L466.5,21.7L466.5,21.7z M463,27.8L463,27.8
		c-0.8,0.2-1.7,0.4-2.6,0.4c-1.8,0-3.3-0.6-4.6-1.8l-0.1,0v3.9c0.8,0.7,1.7,1.5,2.5,2C460.1,30.9,461.7,29.4,463,27.8L463,27.8z
		 M459,42.1v-4.3c-0.8-0.7-1.9-1.5-2.6-2c-2.8,1.9-5.2,3.9-6.5,5.9l0,0c1-0.5,2.4-1,4.4-1C456.2,40.8,457.8,41.3,459,42.1L459,42.1
		L459,42.1z"/>
	<path fill="#1D1D1E" d="M413.3,28.9c-3.9,2.9-6.6,4.9-9.7,7.3v2.7c1.7,1.1,3.1,2,4.7,2.9l2.6-2.6l0.8,0.8l-7.3,7.4
		c-2.3-1.5-5.6-3.7-7.9-5.4V28.5c3.9-2.2,8-4.7,11.9-7.3C410.4,24.1,411.7,26.2,413.3,28.9L413.3,28.9z M407.2,32.1
		c-1-2.1-2.1-4.3-3.4-6.5l-0.2,0.1v9C404.3,34.2,405.9,33,407.2,32.1L407.2,32.1z"/>
</g>
</svg>
