<?xml version="1.0" encoding="utf-8"?>
<!-- Generator: Adobe Illustrator 18.0.0, SVG Export Plug-In . SVG Version: 6.00 Build 0)  -->
<!DOCTYPE svg PUBLIC "-//W3C//DTD SVG 1.1//EN" "http://www.w3.org/Graphics/SVG/1.1/DTD/svg11.dtd">
<svg version="1.1" id="Layer_1" xmlns="http://www.w3.org/2000/svg" xmlns:xlink="http://www.w3.org/1999/xlink" x="0px" y="0px"
	 viewBox="0 0 38.7 40" enable-background="new 0 0 38.7 40" xml:space="preserve">
<path fill="#0D0D0D" d="M35.8,28.2c-2.1,2.2-3.4,3.6-3.4,3.6c-2.3-0.7-3.7-2.2-3.7-5.4V11.5c-0.7-0.7-1.5-1.3-2.3-1.9l-0.3,0.3v6.6
	h1.2l-1,4h-0.3v7.4l0.7,0.4v0.1l-3.7,3.5l-4.5-3.6v-0.1c0.8-0.6,0.9-1,0.9-1.8v-5.9h-2.3l1.1-4h1.2v-2.9c0-2.1-0.8-3.2-2.6-4.2v18.4
	c0,2.3-0.9,4.5-3.8,4.5c-1.5,0-2.7-0.6-3.9-0.9c-1.1-0.3-2-0.6-3.1-0.6c-1.6,0-2.7,0.5-3.1,1.1l-0.5-0.4c0.3-2.8,1.7-5.2,4.9-5.2
	c0.7,0,1.3,0.2,1.9,0.4c0.8-0.5,1-1.5,1-3.4v-2.8h-1c-1.1,0-1.6,0.2-1.9,1.1l-0.6-0.2c0-0.3-0.1-0.6-0.1-0.8c0-3,1.9-4.1,3-4.1h0.5
	v-2c0-3.1,2.2-4.7,6.7-7.8c0,0,1.1-0.8,1.7-1.2c3.1,0.6,5.2,2.3,5.8,4.9l4.8-4.9c1.4,0.9,3.3,2.3,4.5,3.3v17.1c0,1.7,0.7,2,1.9,2.1
	V28.2L35.8,28.2z M25.5,16.5v-6l-0.8,0.8v5.2H25.5L25.5,16.5z M25.5,27.6v-7h-0.8v5.6C24.7,26.8,25,27.2,25.5,27.6L25.5,27.6z
	 M16.3,27.2V9L16,8.8c-0.4,0.5-0.5,0.9-0.5,1.8v10.9c0,3.1-1.9,4.6-5.4,5.6v0.1c0.8,0.5,1.4,0.8,2.5,1.7c0.8,0.7,1.6,1,2.3,1
	C15.9,29.9,16.3,29.1,16.3,27.2L16.3,27.2z"/>
</svg>
